<?xml version="1.0" encoding="UTF-8"?>
<svg id="Layer_2" data-name="Layer 2" xmlns="http://www.w3.org/2000/svg" viewBox="0 0 378.79 97.28">
  <defs>
    <style>
      .cls-1 {
        fill: #ff8758;
      }

      .cls-2 {
        fill: #545272;
      }
    </style>
  </defs>
  <g id="Layer_1" data-name="Layer 1">
    <g>
      <g>
        <rect class="cls-1" x="45.77" y="72.18" width="45.77" height="24.81" transform="translate(137.32 169.16) rotate(-180)"/>
        <rect class="cls-1" x="0" y="81.39" width="91.55" height="15.6" transform="translate(91.55 178.38) rotate(-180)"/>
      </g>
      <g>
        <g>
          <path class="cls-2" d="M46.97,0h8.93v51h-8.93V0Z"/>
          <path class="cls-2" d="M85.16,51c-.17-1-.33-2.16-.5-3.47-2.1,2.9-5.43,4.37-10.03,4.37-3.22.14-6.38-.92-8.87-2.96-2.32-2.01-3.58-4.97-3.43-8.03,0-3.37,1.1-6,3.33-7.87s5.2-2.8,8.98-2.8h9.84v-1.13c0-3.86-2.23-5.8-6.7-5.8-3.4-.19-6.58,1.69-8.04,4.77l-6.49-3.7c2.99-5.5,8.03-8.25,15.1-8.26,4.33,0,7.89,1.1,10.66,3.33,2.77,2.24,4.14,5.9,4.14,10.97v20.59h-7.98ZM84.52,36.33h-7.76c-1.43-.09-2.85.33-4.01,1.17-.94.82-1.46,2.02-1.4,3.27,0,2.96,1.9,4.43,5.67,4.43,1.93.03,3.8-.64,5.27-1.9,1.5-1.23,2.23-3.33,2.23-6.29v-.68Z"/>
          <path class="cls-2" d="M118.63,24.5h-6.47v26.5h-8.73v-26.5h-6.54v-7.36h6.54V6.64h8.77v10.5h6.47l-.04,7.36Z"/>
          <path class="cls-2" d="M155.26,37.2h-25.54c.12,2.1,1.16,4.04,2.84,5.3,1.68,1.21,3.72,1.84,5.79,1.8,3.84,0,6.54-1.6,8.17-4.83l7.37,2.94c-1.2,2.92-3.32,5.36-6.04,6.96-2.87,1.71-6.16,2.59-9.5,2.53-5.03,0-9.12-1.64-12.26-4.93-3.17-3.27-4.73-7.56-4.73-12.9s1.56-9.66,4.7-13c3.13-3.33,7.27-4.97,12.43-4.97s9.1,1.63,12.17,4.9,4.6,7.63,4.6,13.07v3.13ZM132.7,25.44c-1.57,1.48-2.57,3.48-2.8,5.63h16.29c-.01-2.12-.84-4.15-2.33-5.67-1.53-1.31-3.5-1.99-5.51-1.9-2.06-.09-4.08.6-5.66,1.93h0Z"/>
          <path class="cls-2" d="M166.62,34.46l-11.99-17.33h10.49c1.57,2.26,3.94,6,7.1,11.2l6.83-11.2h10.16l-11.96,17.2,11.68,16.66h-10.51c-2.5-3.59-4.8-7.23-6.83-10.78l-6.59,10.78h-9.97l11.6-16.54Z"/>
          <path class="cls-2" d="M33.96,11c2.98,0,5.38-2.43,5.38-5.4,0-2.98-2.43-5.38-5.4-5.38-1.43,0-2.79.57-3.8,1.58-2.12,2.09-2.13,5.51-.04,7.62.01.01.03.03.04.04,1.01,1.02,2.39,1.57,3.83,1.54Z"/>
          <path class="cls-2" d="M15.39,8.84c1.17-.9,3.27-1.1,6.37-.5V.4c-1.4-.25-2.82-.38-4.24-.4-3.99,0-7.13,1.1-9.39,3.31-2.3,2.23-3.43,5.6-3.43,10.1v3.83l-4.7-.06v7.36l4.7.06.06,26.43h8.84V13.4c0-2.1.59-3.63,1.8-4.56Z"/>
          <path class="cls-2" d="M23.71,24.56h5.65v26.43h8.94V17.23H13.6s0,7.34,10.11,7.34Z"/>
        </g>
        <g>
          <path class="cls-1" d="M111.85,62.95h5.59v34.04h-5.59v-34.04Z"/>
          <path class="cls-1" d="M143.48,74.52c1.86,1.82,2.8,4.73,2.8,8.75v13.71h-5.3v-13.42c0-2.37-.5-4.16-1.51-5.4-1.01-1.23-2.48-1.85-4.43-1.85-2.07,0-3.7.72-4.89,2.16-1.18,1.44-1.78,3.43-1.78,5.96v12.54h-5.25v-24.89h4.57l.58,3.26c1.88-2.37,4.54-3.55,7.97-3.55,2.95,0,5.36.91,7.22,2.72Z"/>
          <path class="cls-1" d="M147.79,72.09h5.64l6.86,19.26,6.76-19.26h5.54l-9.19,24.89h-6.42l-9.19-24.89Z"/>
          <path class="cls-1" d="M174.89,77.85c1.02-1.93,2.45-3.42,4.28-4.47,1.83-1.05,3.93-1.58,6.3-1.58s4.51.48,6.34,1.46,3.27,2.35,4.33,4.13c1.05,1.78,1.6,3.87,1.63,6.27,0,.65-.05,1.31-.14,1.99h-18.77v.29c.13,2.17.81,3.89,2.04,5.15s2.87,1.9,4.91,1.9c1.62,0,2.98-.38,4.08-1.14,1.1-.76,1.83-1.84,2.19-3.23h5.25c-.45,2.53-1.68,4.6-3.67,6.22-1.99,1.62-4.48,2.43-7.46,2.43-2.59,0-4.85-.53-6.78-1.58-1.93-1.05-3.42-2.53-4.47-4.45-1.05-1.91-1.58-4.13-1.58-6.66s.51-4.81,1.53-6.74ZM192.42,81.82c-.23-1.81-.95-3.23-2.16-4.25-1.22-1.02-2.75-1.53-4.59-1.53-1.72,0-3.2.53-4.45,1.58-1.25,1.05-1.97,2.46-2.16,4.21h13.37Z"/>
          <path class="cls-1" d="M206.04,88.77c.1,1.3.71,2.36,1.82,3.19,1.12.83,2.57,1.24,4.35,1.24,1.59,0,2.88-.3,3.87-.9.99-.6,1.48-1.4,1.48-2.41,0-.84-.23-1.47-.68-1.9-.45-.42-1.06-.72-1.82-.9-.76-.18-1.94-.37-3.53-.56-2.17-.26-3.96-.61-5.37-1.05s-2.54-1.13-3.4-2.09c-.86-.96-1.29-2.24-1.29-3.87,0-1.52.43-2.88,1.29-4.06.86-1.18,2.04-2.1,3.55-2.75,1.51-.65,3.22-.97,5.13-.97,3.14,0,5.7.7,7.66,2.09,1.96,1.39,3.02,3.35,3.18,5.88h-5.1c-.13-1.13-.7-2.07-1.7-2.8-1.01-.73-2.27-1.09-3.79-1.09s-2.76.29-3.7.88c-.94.58-1.41,1.38-1.41,2.38,0,.75.23,1.31.71,1.68.47.37,1.06.63,1.77.78.71.15,1.86.32,3.45.51,2.14.23,3.94.58,5.4,1.05s2.63,1.22,3.5,2.24c.88,1.02,1.31,2.41,1.31,4.16,0,1.56-.45,2.93-1.36,4.11s-2.16,2.09-3.74,2.72c-1.59.63-3.37.95-5.35.95-3.34,0-6.04-.75-8.1-2.26-2.06-1.51-3.12-3.59-3.19-6.25h5.06Z"/>
          <path class="cls-1" d="M228.6,76.71h-4.33v-4.62h4.33v-6.95h5.3v6.95h5.98v4.62h-5.98v12.98c0,.97.19,1.66.58,2.07.39.41,1.05.61,1.99.61h3.99v4.62h-5.06c-2.37,0-4.09-.55-5.18-1.65s-1.63-2.8-1.63-5.11v-13.52Z"/>
          <path class="cls-1" d="M278.68,74.45c1.72,1.77,2.58,4.59,2.58,8.49v14.05h-5.25v-14c0-2.17-.44-3.82-1.31-4.96s-2.17-1.7-3.89-1.7c-1.82,0-3.25.64-4.3,1.92-1.05,1.28-1.58,3.04-1.58,5.27v13.47h-5.3v-14c0-2.2-.45-3.86-1.34-4.98-.89-1.12-2.2-1.68-3.91-1.68s-3.2.66-4.25,1.99c-1.05,1.33-1.58,3.11-1.58,5.35v13.32h-5.25v-24.89h4.57l.58,3.26c1.78-2.33,4.21-3.52,7.29-3.55,1.75,0,3.29.37,4.62,1.12,1.33.75,2.35,1.88,3.06,3.4.88-1.43,2.02-2.53,3.45-3.33,1.43-.79,3.14-1.19,5.15-1.19,2.72,0,4.94.88,6.66,2.65Z"/>
          <path class="cls-1" d="M286.63,77.85c1.02-1.93,2.45-3.42,4.28-4.47,1.83-1.05,3.93-1.58,6.3-1.58s4.51.48,6.34,1.46,3.27,2.35,4.33,4.13c1.05,1.78,1.6,3.87,1.63,6.27,0,.65-.05,1.31-.14,1.99h-18.77v.29c.13,2.17.81,3.89,2.04,5.15s2.87,1.9,4.91,1.9c1.62,0,2.98-.38,4.08-1.14,1.1-.76,1.83-1.84,2.19-3.23h5.25c-.45,2.53-1.68,4.6-3.67,6.22-1.99,1.62-4.48,2.43-7.46,2.43-2.59,0-4.85-.53-6.78-1.58-1.93-1.05-3.42-2.53-4.47-4.45-1.05-1.91-1.58-4.13-1.58-6.66s.51-4.81,1.53-6.74ZM304.16,81.82c-.23-1.81-.95-3.23-2.16-4.25s-2.75-1.53-4.59-1.53c-1.72,0-3.2.53-4.45,1.58-1.25,1.05-1.97,2.46-2.16,4.21h13.37Z"/>
          <path class="cls-1" d="M334.08,74.52c1.86,1.82,2.8,4.73,2.8,8.75v13.71h-5.3v-13.42c0-2.37-.5-4.16-1.51-5.4-1.01-1.23-2.48-1.85-4.43-1.85-2.07,0-3.7.72-4.89,2.16s-1.78,3.43-1.78,5.96v12.54h-5.25v-24.89h4.57l.58,3.26c1.88-2.37,4.54-3.55,7.97-3.55,2.95,0,5.36.91,7.22,2.72Z"/>
          <path class="cls-1" d="M343.25,76.71h-4.33v-4.62h4.33v-6.95h5.3v6.95h5.98v4.62h-5.98v12.98c0,.97.19,1.66.58,2.07.39.41,1.05.61,1.99.61h3.99v4.62h-5.06c-2.37,0-4.09-.55-5.18-1.65-1.09-1.1-1.63-2.8-1.63-5.11v-13.52Z"/>
          <path class="cls-1" d="M362.12,88.77c.1,1.3.71,2.36,1.82,3.19,1.12.83,2.57,1.24,4.35,1.24,1.59,0,2.88-.3,3.87-.9.99-.6,1.48-1.4,1.48-2.41,0-.84-.23-1.47-.68-1.9-.45-.42-1.06-.72-1.82-.9-.76-.18-1.94-.37-3.53-.56-2.17-.26-3.96-.61-5.37-1.05s-2.54-1.13-3.4-2.09c-.86-.96-1.29-2.24-1.29-3.87,0-1.52.43-2.88,1.29-4.06.86-1.18,2.04-2.1,3.55-2.75,1.51-.65,3.22-.97,5.13-.97,3.14,0,5.7.7,7.66,2.09,1.96,1.39,3.02,3.35,3.18,5.88h-5.1c-.13-1.13-.7-2.07-1.7-2.8-1.01-.73-2.27-1.09-3.79-1.09s-2.76.29-3.7.88c-.94.58-1.41,1.38-1.41,2.38,0,.75.23,1.31.71,1.68.47.37,1.06.63,1.77.78.71.15,1.86.32,3.45.51,2.14.23,3.94.58,5.4,1.05s2.63,1.22,3.5,2.24c.88,1.02,1.31,2.41,1.31,4.16,0,1.56-.45,2.93-1.36,4.11s-2.16,2.09-3.74,2.72c-1.59.63-3.37.95-5.35.95-3.34,0-6.04-.75-8.1-2.26-2.06-1.51-3.12-3.59-3.19-6.25h5.06Z"/>
        </g>
      </g>
    </g>
  </g>
</svg>