<?xml version="1.0" encoding="UTF-8"?>
<svg id="Layer_3" data-name="Layer 3" xmlns="http://www.w3.org/2000/svg" viewBox="0 0 350 111.6">
  <defs>
    <style>
      .cls-1 {
        fill: #f8c100;
      }

      .cls-2 {
        fill: #545272;
      }
    </style>
  </defs>
  <g id="Layer_1" data-name="Layer 1">
    <g>
      <g>
        <polygon class="cls-1" points="34.21 75.35 0 91.2 0 101.43 97.41 101.43 97.41 89.67 34.21 75.35"/>
        <g>
          <path class="cls-1" d="M132.67,65.83c2.44,0,4.59.47,6.46,1.4,1.86.93,3.31,2.25,4.32,3.97,1.02,1.71,1.52,3.7,1.52,5.98s-.51,4.26-1.52,5.98-2.46,3.03-4.32,3.97c-1.87.93-4.02,1.4-6.46,1.4h-8.19v12.92h-5.85v-35.6h14.03ZM124.49,83.43h7.68c2.1,0,3.77-.57,5.01-1.7,1.24-1.14,1.86-2.65,1.86-4.55s-.61-3.46-1.83-4.58c-1.22-1.12-2.88-1.68-4.98-1.68h-7.73v12.51Z"/>
          <path class="cls-1" d="M163.28,75.39v5.14h-2.44c-2.27,0-3.92.74-4.93,2.21-1.02,1.47-1.53,3.35-1.53,5.62v13.07h-5.49v-26.03h4.88l.61,3.92c.75-1.22,1.71-2.18,2.9-2.87,1.19-.69,2.78-1.04,4.78-1.04h1.22Z"/>
          <path class="cls-1" d="M170.94,100.08c-2.02-1.1-3.58-2.66-4.68-4.68-1.1-2.02-1.65-4.35-1.65-6.99s.55-4.92,1.65-6.94c1.1-2.02,2.66-3.58,4.68-4.7s4.33-1.68,6.94-1.68,4.92.56,6.94,1.68,3.58,2.69,4.68,4.7c1.1,2.02,1.65,4.33,1.65,6.94s-.55,4.98-1.65,6.99c-1.1,2.02-2.66,3.58-4.68,4.68-2.02,1.1-4.33,1.65-6.94,1.65s-4.92-.55-6.94-1.65ZM183.45,94.64c1.41-1.61,2.11-3.69,2.11-6.23s-.7-4.62-2.11-6.23c-1.41-1.61-3.26-2.41-5.57-2.41s-4.15.8-5.54,2.41c-1.39,1.61-2.09,3.69-2.09,6.23s.7,4.62,2.09,6.23c1.39,1.61,3.24,2.41,5.54,2.41s4.16-.8,5.57-2.41Z"/>
          <path class="cls-1" d="M215.86,76.69c1.86,1.07,3.32,2.61,4.37,4.63s1.58,4.38,1.58,7.09-.53,4.98-1.58,6.99c-1.05,2.02-2.51,3.58-4.37,4.68-1.87,1.1-3.98,1.65-6.36,1.65-1.93,0-3.61-.36-5.03-1.07-1.42-.71-2.56-1.68-3.41-2.9v13.83h-5.49v-36.2h4.78l.66,3.86c2.1-2.78,4.93-4.17,8.49-4.17,2.37,0,4.49.53,6.36,1.6ZM214.11,94.66c1.41-1.63,2.11-3.71,2.11-6.26s-.7-4.66-2.11-6.26c-1.41-1.59-3.25-2.39-5.52-2.39s-4.1.79-5.49,2.36c-1.39,1.58-2.08,3.64-2.08,6.18s.69,4.73,2.08,6.36c1.39,1.63,3.22,2.44,5.49,2.44s4.11-.81,5.52-2.44Z"/>
          <path class="cls-1" d="M226.87,81.42c1.07-2.02,2.56-3.57,4.48-4.68,1.91-1.1,4.11-1.65,6.58-1.65s4.72.51,6.64,1.52,3.42,2.46,4.53,4.32c1.1,1.87,1.67,4.05,1.7,6.56,0,.68-.05,1.37-.15,2.08h-19.63v.31c.14,2.27.85,4.07,2.14,5.39,1.29,1.32,3,1.98,5.14,1.98,1.69,0,3.12-.4,4.27-1.2,1.15-.8,1.91-1.92,2.29-3.38h5.49c-.48,2.64-1.75,4.81-3.84,6.51-2.08,1.69-4.69,2.54-7.81,2.54-2.71,0-5.08-.55-7.09-1.65-2.02-1.1-3.58-2.65-4.68-4.65-1.1-2-1.65-4.32-1.65-6.97s.53-5.03,1.6-7.04ZM245.2,85.56c-.24-1.9-.99-3.38-2.26-4.45s-2.87-1.6-4.8-1.6c-1.8,0-3.35.55-4.65,1.65-1.31,1.1-2.06,2.57-2.26,4.4h13.98Z"/>
          <path class="cls-1" d="M269.61,75.39v5.14h-2.44c-2.27,0-3.92.74-4.93,2.21-1.02,1.47-1.53,3.35-1.53,5.62v13.07h-5.49v-26.03h4.88l.61,3.92c.75-1.22,1.71-2.18,2.9-2.87,1.19-.69,2.78-1.04,4.78-1.04h1.22Z"/>
          <path class="cls-1" d="M273.12,68.12h5.49v7.27h6.31v4.83h-6.31v13.58c0,1.02.2,1.74.61,2.16.41.42,1.1.64,2.09.64h4.17v4.83h-5.29c-2.47,0-4.27-.58-5.39-1.73-1.12-1.15-1.68-2.93-1.68-5.34v-26.24Z"/>
          <path class="cls-1" d="M293.61,66.96c.64.63.97,1.42.97,2.36s-.32,1.74-.97,2.37c-.64.63-1.44.94-2.39.94s-1.75-.31-2.39-.94c-.64-.63-.96-1.42-.96-2.37s.32-1.74.96-2.36,1.44-.94,2.39-.94,1.75.31,2.39.94ZM288.47,75.39h5.49v26.03h-5.49v-26.03Z"/>
          <path class="cls-1" d="M299.99,81.42c1.07-2.02,2.56-3.57,4.48-4.68,1.91-1.1,4.11-1.65,6.58-1.65s4.72.51,6.64,1.52c1.91,1.02,3.42,2.46,4.53,4.32,1.1,1.87,1.67,4.05,1.7,6.56,0,.68-.05,1.37-.15,2.08h-19.63v.31c.14,2.27.85,4.07,2.14,5.39s3,1.98,5.14,1.98c1.69,0,3.12-.4,4.27-1.2,1.15-.8,1.91-1.92,2.29-3.38h5.49c-.48,2.64-1.75,4.81-3.84,6.51-2.08,1.69-4.69,2.54-7.81,2.54-2.71,0-5.08-.55-7.09-1.65-2.02-1.1-3.58-2.65-4.68-4.65-1.1-2-1.65-4.32-1.65-6.97s.53-5.03,1.6-7.04ZM318.32,85.56c-.24-1.9-.99-3.38-2.26-4.45s-2.87-1.6-4.8-1.6c-1.8,0-3.35.55-4.65,1.65-1.31,1.1-2.06,2.57-2.26,4.4h13.98Z"/>
          <path class="cls-1" d="M332.56,92.83c.1,1.36.74,2.47,1.91,3.33,1.17.86,2.69,1.3,4.55,1.3,1.66,0,3.01-.31,4.04-.94,1.03-.63,1.55-1.47,1.55-2.52,0-.88-.24-1.54-.71-1.98-.48-.44-1.11-.75-1.91-.94-.8-.19-2.03-.38-3.69-.59-2.27-.27-4.14-.64-5.62-1.09s-2.66-1.19-3.56-2.19c-.9-1-1.35-2.35-1.35-4.04,0-1.59.45-3.01,1.35-4.25.9-1.24,2.14-2.19,3.71-2.87,1.58-.68,3.36-1.02,5.36-1.02,3.29,0,5.96.73,8.01,2.19,2.05,1.46,3.16,3.51,3.33,6.15h-5.34c-.14-1.19-.73-2.16-1.78-2.92-1.05-.76-2.37-1.14-3.97-1.14s-2.88.3-3.86.92c-.98.61-1.47,1.44-1.47,2.49,0,.78.24,1.37.74,1.75.49.39,1.11.66,1.86.81.74.15,1.95.33,3.61.53,2.24.24,4.12.6,5.64,1.09s2.75,1.27,3.66,2.34c.92,1.07,1.37,2.52,1.37,4.35,0,1.63-.48,3.06-1.42,4.3-.95,1.24-2.25,2.19-3.91,2.85-1.66.66-3.53.99-5.59.99-3.49,0-6.31-.79-8.47-2.36-2.15-1.58-3.26-3.75-3.33-6.53h5.29Z"/>
        </g>
      </g>
      <g>
        <path class="cls-2" d="M49.12,0h9.34v53.33h-9.34V0Z"/>
        <path class="cls-2" d="M89.05,53.33c-.18-1.04-.35-2.26-.53-3.63-2.2,3.03-5.68,4.56-10.49,4.56-3.37.15-6.67-.96-9.27-3.1-2.42-2.1-3.74-5.2-3.59-8.4,0-3.52,1.15-6.27,3.48-8.23,2.34-1.95,5.44-2.93,9.39-2.93h10.29v-1.18c0-4.04-2.34-6.06-7.01-6.07-3.56-.2-6.88,1.77-8.41,4.99l-6.79-3.87c3.13-5.75,8.39-8.63,15.79-8.64,4.53,0,8.26,1.15,11.15,3.48,2.89,2.34,4.33,6.17,4.33,11.47v21.54h-8.35ZM88.39,37.99h-8.12c-1.5-.09-2.98.34-4.19,1.22-.98.86-1.52,2.12-1.47,3.42,0,3.1,1.99,4.63,5.93,4.63,2.02.03,3.98-.67,5.51-1.98,1.57-1.29,2.33-3.48,2.33-6.58v-.71Z"/>
        <path class="cls-2" d="M124.06,25.62h-6.76v27.71h-9.13v-27.71h-6.84v-7.7h6.84V6.94h9.17v10.98h6.76l-.04,7.7Z"/>
        <path class="cls-2" d="M162.37,38.91h-26.7c.12,2.19,1.21,4.22,2.97,5.54,1.76,1.27,3.89,1.93,6.06,1.88,4.01,0,6.84-1.67,8.55-5.05l7.7,3.07c-1.25,3.05-3.47,5.61-6.31,7.28-3,1.79-6.44,2.71-9.94,2.65-5.26,0-9.53-1.72-12.82-5.16-3.32-3.42-4.95-7.91-4.95-13.49s1.63-10.11,4.91-13.59c3.28-3.48,7.6-5.19,13-5.19s9.51,1.71,12.73,5.12,4.81,7.98,4.81,13.67v3.28ZM138.77,26.6c-1.65,1.55-2.68,3.64-2.93,5.89h17.04c-.01-2.22-.88-4.34-2.43-5.93-1.6-1.37-3.66-2.08-5.76-1.98-2.16-.1-4.27.63-5.92,2.02h0Z"/>
        <path class="cls-2" d="M174.25,36.04l-12.54-18.12h10.97c1.65,2.37,4.12,6.27,7.43,11.71l7.15-11.71h10.62l-12.51,17.99,12.21,17.42h-10.99c-2.61-3.76-5.02-7.56-7.15-11.27l-6.89,11.27h-10.43l12.13-17.29Z"/>
        <path class="cls-2" d="M35.51,11.51c3.11,0,5.63-2.54,5.62-5.65,0-3.11-2.54-5.63-5.65-5.62-1.49,0-2.92.6-3.97,1.65-2.21,2.19-2.23,5.76-.04,7.97.01.01.03.03.04.04,1.06,1.06,2.5,1.64,4,1.61Z"/>
        <path class="cls-2" d="M16.1,9.24c1.22-.94,3.42-1.16,6.66-.53V.42c-1.46-.26-2.95-.4-4.43-.42-4.18,0-7.45,1.15-9.82,3.46-2.4,2.33-3.59,5.85-3.59,10.56v4l-4.91-.07v7.7l4.91.07.07,27.64h9.24V14.01c0-2.2.62-3.79,1.88-4.77Z"/>
        <path class="cls-2" d="M24.8,25.69h5.91v27.64h9.35V18.02H14.22s0,7.67,10.58,7.67Z"/>
      </g>
    </g>
  </g>
</svg>