<?xml version="1.0" encoding="UTF-8"?>
<svg id="Layer_3" data-name="Layer 3" xmlns="http://www.w3.org/2000/svg" viewBox="0 0 384.08 102.93">
  <defs>
    <style>
      .cls-1 {
        fill: #3a395c;
      }
    </style>
  </defs>
  <g id="Layer_1" data-name="Layer 1">
    <g>
      <g>
        <path class="cls-1" d="M41.82,19.69v25.79h-7.21l-.42-4.69c-1.44,1.85-3.39,3.24-5.61,4-2.47.92-5.08,1.39-7.72,1.36-6.25,0-11.27-2.14-15.1-6.45C1.93,35.4,0,29.97,0,23.34S2.03,10.89,6.07,6.52,15.42,0,22.09,0c4.34-.12,8.61,1.04,12.3,3.33,3.33,2.09,5.85,5.26,7.14,8.98l-7.47,3.06c-.82-2.38-2.46-4.38-4.61-5.68-2.22-1.24-4.73-1.87-7.28-1.81-4.22,0-7.54,1.43-10.01,4.25-2.47,2.83-3.69,6.65-3.69,11.38s1.23,8.44,3.66,11.03c2.5,2.61,6,4.03,9.61,3.89,1.75,0,3.5-.27,5.17-.8,1.76-.59,3.34-1.64,4.57-3.03,1.45-1.61,2.34-3.64,2.56-5.8v-1.84h-13.04v-7.28h20.82Z"/>
        <path class="cls-1" d="M59.28,15.32c2.3-.57,4.71-.57,7.02,0v7.26c-3.57-.86-6.36-.51-8.38,1.07-2.05,1.6-3.07,4.08-3.07,7.52v14.32h-8.01V15.38h7.38l.42,3.48c.93-1.82,2.64-3.12,4.65-3.53Z"/>
        <path class="cls-1" d="M71.95,18.89c2.92-2.95,6.72-4.43,11.44-4.43s8.53,1.46,11.41,4.4,4.33,6.74,4.33,11.47-1.45,8.54-4.33,11.48c-2.88,2.94-6.69,4.43-11.41,4.43s-8.59-1.49-11.48-4.43c-2.88-2.94-4.34-6.74-4.34-11.48s1.46-8.5,4.37-11.44ZM77.74,36.66c1.42,1.62,3.5,2.5,5.65,2.4,2.15.08,4.22-.8,5.65-2.4,2.86-3.74,2.86-8.93,0-12.66-1.43-1.6-3.5-2.48-5.65-2.4-2.15-.1-4.23.78-5.65,2.4-2.86,3.74-2.86,8.93,0,12.66Z"/>
        <path class="cls-1" d="M124.05,45.49c-.28-.99-.47-2-.57-3.03-1.78,2.55-4.66,3.83-8.67,3.83-1.47.02-2.93-.17-4.34-.56-1.41-.43-2.75-1.08-3.96-1.93-1.37-1-2.42-2.36-3.06-3.92-.79-1.96-1.18-4.07-1.13-6.18V15.27h7.97v16.82c-.04,1.27.18,2.53.65,3.72.31.89.9,1.66,1.67,2.2.61.41,1.29.73,1.99.95.62.18,1.26.26,1.9.26,1.71,0,3.37-.59,4.7-1.67,1.39-1.1,2.11-2.94,2.11-5.53V15.3h8.01v30.19h-7.26Z"/>
        <path class="cls-1" d="M165.21,41.92c-4.39,4.31-10.94,5.57-16.62,3.2-1.65-.65-3.09-1.74-4.16-3.16v17.66h-7.67V15.3h7.05l.38,3.48c1.03-1.35,2.38-2.43,3.92-3.15,1.92-.87,4.01-1.3,6.12-1.25,4.43,0,8.01,1.36,10.76,4.07,2.75,2.71,4.16,6.57,4.28,11.48.09,5.11-1.27,9.12-4.07,12ZM159.06,36.69c3.04-3.7,3.04-9.04,0-12.75-1.57-1.6-3.73-2.47-5.97-2.4-2.27-.07-4.46.8-6.06,2.4-3.13,3.67-3.13,9.07,0,12.75,1.6,1.61,3.79,2.48,6.06,2.4,2.24.08,4.41-.79,5.97-2.4h0Z"/>
        <path class="cls-1" d="M202.45,33.19h-22.77c.11,1.87,1.03,3.6,2.53,4.72,1.5,1.08,3.32,1.64,5.17,1.6,3.42,0,5.83-1.43,7.29-4.31l6.57,2.62c-1.07,2.6-2.96,4.78-5.38,6.21-2.56,1.53-5.49,2.31-8.47,2.26-4.48,0-8.13-1.47-10.93-4.4-2.83-2.92-4.22-6.74-4.22-11.5s1.39-8.62,4.19-11.59c2.79-2.97,6.48-4.43,11.08-4.43s8.11,1.46,10.85,4.36,4.1,6.81,4.1,11.65v2.79ZM182.33,22.7c-1.4,1.32-2.29,3.1-2.5,5.02h14.53c-.01-1.89-.76-3.7-2.08-5.05-1.36-1.17-3.12-1.77-4.91-1.69-1.84-.08-3.64.53-5.05,1.72h0Z"/>
        <path class="cls-1" d="M257.25.02h7.96v45.47h-7.96V.02Z"/>
        <path class="cls-1" d="M291.3,45.49c-.15-.89-.3-1.93-.45-3.09-1.87,2.59-4.84,3.89-8.95,3.89-2.87.12-5.69-.82-7.9-2.64-2.06-1.79-3.19-4.43-3.06-7.16,0-3,.98-5.35,2.97-7.02,1.99-1.67,4.64-2.5,8.01-2.5h8.77v-1.01c0-3.44-1.99-5.17-5.97-5.17-3.03-.17-5.86,1.51-7.17,4.25l-5.79-3.3c2.67-4.9,7.16-7.36,13.46-7.37,3.86,0,7.04.98,9.51,2.97s3.69,5.26,3.69,9.78v18.36h-7.12ZM290.73,32.41h-6.92c-1.28-.08-2.54.29-3.57,1.04-.84.73-1.3,1.8-1.25,2.92,0,2.64,1.7,3.95,5.05,3.95,1.72.03,3.39-.57,4.7-1.69,1.34-1.1,1.99-2.97,1.99-5.61v-.61Z"/>
        <path class="cls-1" d="M321.14,21.86h-5.77v23.62h-7.78v-23.62h-5.83v-6.57h5.83V5.93h7.82v9.36h5.77l-.03,6.57Z"/>
        <path class="cls-1" d="M353.8,33.19h-22.77c.11,1.87,1.03,3.6,2.53,4.72,1.5,1.08,3.32,1.64,5.17,1.6,3.42,0,5.83-1.43,7.29-4.31l6.57,2.62c-1.07,2.6-2.96,4.78-5.38,6.21-2.56,1.53-5.49,2.31-8.47,2.26-4.48,0-8.13-1.47-10.93-4.4-2.83-2.92-4.22-6.74-4.22-11.5s1.39-8.62,4.19-11.59c2.79-2.97,6.48-4.43,11.08-4.43s8.11,1.46,10.85,4.36c2.74,2.91,4.1,6.81,4.1,11.65v2.79ZM333.68,22.7c-1.4,1.32-2.29,3.1-2.5,5.02h14.53c0-1.89-.75-3.7-2.07-5.05-1.36-1.17-3.12-1.77-4.91-1.69-1.84-.08-3.64.53-5.05,1.72h0Z"/>
        <path class="cls-1" d="M363.93,30.74l-10.69-15.45h9.35c1.4,2.02,3.52,5.35,6.33,9.99l6.09-9.99h9.06l-10.67,15.34,10.41,14.86h-9.37c-2.23-3.2-4.28-6.45-6.09-9.61l-5.88,9.61h-8.89l10.34-14.74Z"/>
        <path class="cls-1" d="M245.65,9.83c2.65,0,4.8-2.16,4.79-4.82,0-2.65-2.16-4.8-4.82-4.79-1.27,0-2.49.51-3.39,1.41-1.89,1.87-1.9,4.91-.04,6.8.01.01.02.02.04.04.9.91,2.13,1.4,3.41,1.37Z"/>
        <path class="cls-1" d="M229.1,7.9c1.04-.8,2.92-.99,5.68-.45V.38c-1.25-.22-2.51-.34-3.78-.36-3.56,0-6.35.98-8.38,2.95-2.05,1.99-3.06,4.99-3.06,9v3.41l-4.19-.06v6.57l4.19.06.06,23.57h7.88V11.96c0-1.87.53-3.24,1.6-4.07Z"/>
        <path class="cls-1" d="M236.51,21.92h5.04v23.57h7.97V15.38h-22.02s0,6.54,9.02,6.54Z"/>
      </g>
      <g>
        <path class="cls-1" d="M9.02,68.73c2.64,0,4.68.59,6.12,1.77,1.43,1.18,2.15,2.83,2.15,4.95,0,1.61-.43,2.94-1.3,4-.87,1.06-2.11,1.76-3.72,2.11,1.96.33,3.49,1.01,4.59,2.06,1.09,1.04,1.64,2.5,1.64,4.36,0,2.24-.8,4-2.4,5.27-1.6,1.27-3.91,1.91-6.93,1.91H0v-26.43h9.02ZM2.04,80.74h7.06c1.96,0,3.48-.45,4.55-1.36,1.07-.91,1.6-2.15,1.6-3.74s-.53-2.82-1.6-3.72c-1.07-.89-2.59-1.34-4.55-1.34H2.04v10.16ZM2.04,93.31h7.14c2.34,0,4.13-.48,5.36-1.43,1.23-.96,1.85-2.28,1.85-3.96s-.63-3.06-1.89-3.96c-1.26-.91-3.03-1.36-5.32-1.36H2.04v10.72Z"/>
        <path class="cls-1" d="M38.58,76.02v19.14h-1.7l-.26-4.04c-.58,1.31-1.43,2.35-2.57,3.11-1.13.77-2.52,1.15-4.15,1.15-2.22,0-4-.72-5.34-2.17-1.35-1.45-2.02-3.61-2.02-6.47v-10.72h1.93v10.61c0,2.27.5,4,1.51,5.19,1.01,1.2,2.42,1.79,4.23,1.79,1.99,0,3.56-.74,4.72-2.21s1.74-3.47,1.74-5.98v-9.4h1.92Z"/>
        <path class="cls-1" d="M45.04,69.37c.25.25.38.58.38.98s-.13.73-.38.98-.58.38-.98.38c-.38,0-.7-.13-.96-.38-.26-.25-.4-.58-.4-.98s.13-.73.4-.98c.26-.25.59-.38.96-.38.4,0,.73.13.98.38ZM43.11,76.02h1.92v19.14h-1.92v-19.14Z"/>
        <path class="cls-1" d="M49.57,68.73h1.92v26.43h-1.92v-26.43Z"/>
        <path class="cls-1" d="M73.65,68.73v26.43h-1.66l-.3-4.34c-.63,1.38-1.57,2.49-2.83,3.32-1.26.83-2.74,1.25-4.45,1.25s-3.29-.4-4.66-1.21c-1.37-.81-2.44-1.94-3.21-3.42-.77-1.47-1.15-3.2-1.15-5.19s.38-3.57,1.15-5.06c.77-1.48,1.84-2.64,3.21-3.47,1.37-.83,2.93-1.25,4.66-1.25s3.27.4,4.53,1.21c1.26.81,2.19,1.91,2.79,3.32v-11.59h1.93ZM68.31,92.63c1.09-.68,1.94-1.63,2.55-2.85.6-1.22.91-2.61.91-4.17s-.3-2.96-.91-4.19c-.6-1.23-1.45-2.2-2.55-2.89-1.09-.69-2.35-1.04-3.76-1.04s-2.66.35-3.76,1.04c-1.09.69-1.94,1.65-2.55,2.87-.6,1.22-.91,2.61-.91,4.17s.3,2.96.91,4.19c.6,1.23,1.45,2.19,2.55,2.87,1.09.68,2.35,1.02,3.76,1.02s2.66-.34,3.76-1.02Z"/>
        <path class="cls-1" d="M80.11,69.37c.25.25.38.58.38.98s-.13.73-.38.98-.58.38-.98.38c-.38,0-.7-.13-.96-.38-.26-.25-.4-.58-.4-.98s.13-.73.4-.98c.26-.25.59-.38.96-.38.4,0,.73.13.98.38ZM78.18,76.02h1.92v19.14h-1.92v-19.14Z"/>
        <path class="cls-1" d="M98.96,77.94c1.37,1.43,2.06,3.6,2.06,6.49v10.72h-1.93v-10.65c0-2.24-.52-3.96-1.57-5.15-1.04-1.19-2.5-1.79-4.36-1.79-2.04,0-3.65.74-4.83,2.21-1.18,1.47-1.77,3.45-1.77,5.95v9.44h-1.92v-19.14h1.66l.3,4.08c.58-1.31,1.45-2.35,2.6-3.13,1.16-.78,2.58-1.17,4.27-1.17,2.29,0,4.12.72,5.49,2.15Z"/>
        <path class="cls-1" d="M122.92,76.02v17.97c0,3.02-.74,5.27-2.23,6.74-1.49,1.47-3.78,2.21-6.87,2.21-2.37,0-4.3-.54-5.81-1.62-1.51-1.08-2.42-2.63-2.72-4.64h2c.3,1.43,1.04,2.55,2.21,3.34,1.17.79,2.66,1.19,4.47,1.19,2.37,0,4.13-.59,5.29-1.76,1.16-1.17,1.74-3.01,1.74-5.53v-3.36c-.63,1.51-1.57,2.69-2.81,3.55-1.25.86-2.75,1.28-4.51,1.28s-3.29-.4-4.66-1.21c-1.37-.81-2.44-1.94-3.21-3.42-.77-1.47-1.15-3.2-1.15-5.19s.38-3.61,1.15-5.1c.77-1.48,1.84-2.64,3.21-3.45,1.37-.82,2.93-1.23,4.66-1.23s3.23.42,4.49,1.25c1.26.83,2.19,1.98,2.79,3.44l.3-4.45h1.66ZM117.57,92.63c1.09-.68,1.94-1.63,2.55-2.85.6-1.22.91-2.61.91-4.17s-.3-2.99-.91-4.23c-.6-1.23-1.45-2.19-2.55-2.87-1.09-.68-2.35-1.02-3.76-1.02s-2.66.34-3.76,1.02c-1.09.68-1.94,1.64-2.55,2.87-.6,1.23-.91,2.63-.91,4.19s.3,2.96.91,4.19c.6,1.23,1.45,2.19,2.55,2.87,1.09.68,2.35,1.02,3.76,1.02s2.66-.34,3.76-1.02Z"/>
        <path class="cls-1" d="M138.92,77.79h-3.62v-1.77h3.62v-5.36h1.93v5.36h5.1v1.77h-5.1v12.87c0,.98.2,1.68.6,2.1.4.42,1.08.62,2.04.62h2.79v1.77h-2.87c-1.61,0-2.76-.35-3.45-1.06-.69-.7-1.04-1.84-1.04-3.4v-12.91Z"/>
        <path class="cls-1" d="M163.25,77.94c1.37,1.43,2.06,3.6,2.06,6.49v10.72h-1.93v-10.65c0-2.24-.52-3.96-1.57-5.15-1.04-1.19-2.5-1.79-4.36-1.79-2.04,0-3.65.74-4.83,2.21-1.18,1.47-1.77,3.45-1.77,5.95v9.44h-1.92v-26.43h1.92v11.82c.58-1.46,1.45-2.62,2.61-3.47,1.16-.86,2.59-1.28,4.3-1.28,2.29,0,4.12.72,5.49,2.15Z"/>
        <path class="cls-1" d="M170.08,80.47c.74-1.48,1.79-2.64,3.13-3.45,1.35-.82,2.88-1.23,4.59-1.23s3.18.36,4.49,1.08c1.31.72,2.35,1.76,3.11,3.11.77,1.36,1.18,2.97,1.23,4.83,0,.35-.01.62-.04.79h-15.59c-.03.1-.04.25-.04.45.02,1.49.34,2.8.94,3.95s1.43,2.04,2.49,2.68c1.06.64,2.25.96,3.59.96,1.56,0,2.92-.43,4.08-1.3s1.93-2.04,2.3-3.53h1.96c-.45,1.96-1.42,3.55-2.89,4.76-1.47,1.21-3.24,1.81-5.3,1.81-1.79,0-3.38-.42-4.78-1.25-1.4-.83-2.48-1.99-3.25-3.47-.77-1.48-1.15-3.18-1.15-5.1s.37-3.61,1.11-5.1ZM184.64,83.98c-.18-2.06-.87-3.66-2.1-4.79-1.22-1.13-2.79-1.7-4.7-1.7-1.16,0-2.23.27-3.21.81-.98.54-1.79,1.3-2.42,2.28-.63.98-.99,2.11-1.09,3.4h13.52Z"/>
        <path class="cls-1" d="M201.17,68.73h15.7v1.89h-13.67v10.46h11.4v1.89h-11.4v12.19h-2.04v-26.43Z"/>
        <path class="cls-1" d="M234.77,76.02v19.14h-1.7l-.26-4.04c-.58,1.31-1.43,2.35-2.57,3.11-1.13.77-2.52,1.15-4.15,1.15-2.22,0-4-.72-5.34-2.17-1.35-1.45-2.02-3.61-2.02-6.47v-10.72h1.93v10.61c0,2.27.5,4,1.51,5.19,1.01,1.2,2.42,1.79,4.23,1.79,1.99,0,3.56-.74,4.72-2.21s1.74-3.47,1.74-5.98v-9.4h1.92Z"/>
        <path class="cls-1" d="M240.62,77.79h-3.62v-1.77h3.62v-5.36h1.93v5.36h5.1v1.77h-5.1v12.87c0,.98.2,1.68.6,2.1.4.42,1.08.62,2.04.62h2.79v1.77h-2.87c-1.61,0-2.76-.35-3.45-1.06-.69-.7-1.04-1.84-1.04-3.4v-12.91Z"/>
        <path class="cls-1" d="M266.44,76.02v19.14h-1.7l-.26-4.04c-.58,1.31-1.43,2.35-2.57,3.11-1.13.77-2.52,1.15-4.15,1.15-2.22,0-4-.72-5.34-2.17-1.35-1.45-2.02-3.61-2.02-6.47v-10.72h1.93v10.61c0,2.27.5,4,1.51,5.19,1.01,1.2,2.42,1.79,4.23,1.79,1.99,0,3.56-.74,4.72-2.21s1.74-3.47,1.74-5.98v-9.4h1.92Z"/>
        <path class="cls-1" d="M279.65,76.02v1.85h-1.25c-2.06,0-3.5.7-4.3,2.1-.81,1.4-1.21,3.23-1.21,5.49v9.7h-1.92v-19.14h1.66l.3,3.81c.45-1.18,1.13-2.11,2.04-2.79.91-.68,2.18-1.02,3.81-1.02h.87Z"/>
        <path class="cls-1" d="M281.86,80.47c.74-1.48,1.79-2.64,3.13-3.45,1.35-.82,2.88-1.23,4.59-1.23s3.18.36,4.49,1.08c1.31.72,2.35,1.76,3.11,3.11.77,1.36,1.18,2.97,1.23,4.83,0,.35-.01.62-.04.79h-15.59c-.03.1-.04.25-.04.45.02,1.49.34,2.8.94,3.95s1.43,2.04,2.49,2.68c1.06.64,2.25.96,3.59.96,1.56,0,2.92-.43,4.08-1.3s1.93-2.04,2.3-3.53h1.96c-.45,1.96-1.42,3.55-2.89,4.76-1.47,1.21-3.24,1.81-5.3,1.81-1.79,0-3.38-.42-4.78-1.25-1.4-.83-2.48-1.99-3.25-3.47-.77-1.48-1.15-3.18-1.15-5.1s.37-3.61,1.11-5.1ZM296.42,83.98c-.18-2.06-.87-3.66-2.1-4.79-1.22-1.13-2.79-1.7-4.7-1.7-1.16,0-2.23.27-3.21.81-.98.54-1.79,1.3-2.42,2.28-.63.98-.99,2.11-1.09,3.4h13.52Z"/>
      </g>
    </g>
  </g>
</svg>