<?xml version="1.0" encoding="UTF-8"?>
<svg id="Layer_2" data-name="Layer 2" xmlns="http://www.w3.org/2000/svg" viewBox="0 0 604.26 202.36">
  <defs>
    <style>
      .cls-1 {
        fill: none;
        stroke: #3a395c;
        stroke-miterlimit: 10;
        stroke-width: .5px;
      }
    </style>
  </defs>
  <g id="Layer_1" data-name="Layer 1">
    <g>
      <path class="cls-1" d="M50.23,201.96h14.43l3.4-57.77c1.68-28.54,1.68-57.49,0-86.03L64.66.4h-14.43l3.45,58.61c1.65,27.98,1.65,56.35,0,84.33l-3.45,58.61Z"/>
      <path class="cls-1" d="M38.97,143.35c-1.65-27.98-1.65-56.35,0-84.33L42.43.4h-14.43l-3.4,57.77c-1.68,28.54-1.68,57.49,0,86.03l3.4,57.77h14.43l-3.45-58.61Z"/>
      <path class="cls-1" d="M468.38,54.94c-2.33,6.93-4.11,14.03-5.36,21.21-.36-2.21-.76-4.43-1.21-6.63L447.52.4h-34.33l15.7,75.93c3.41,16.49,3.41,33.21,0,49.7l-15.7,75.93h34.33l14.29-69.12c.46-2.21.85-4.42,1.21-6.63,1.25,7.18,3.03,14.28,5.36,21.21l18.35,54.55h90.94l19.25-57.23c9.45-28.08,9.45-59.02,0-87.1L577.67.4h-90.94l-18.35,54.55ZM532.2.78l23.76,70.62c6.46,19.2,6.46,40.35,0,59.54l-23.76,70.62-22.85-67.94c-7.04-20.93-7.04-43.98,0-64.91L532.2.78Z"/>
      <rect class="cls-1" x=".25" y=".4" width="4.8" height="201.56"/>
      <path class="cls-1" d="M299.8,201.96h24.39l9.73-54.4c5.51-30.78,5.51-61.99,0-92.76L324.19.4h-24.39l10.49,58.63c5.01,27.97,5.01,56.33,0,84.3l-10.49,58.63Z"/>
      <path class="cls-1" d="M385.14,126.03c-3.41-16.49-3.41-33.21,0-49.7L400.83.4h-34.33l-14.29,69.12c-4.34,21.01-4.34,42.31,0,63.31l14.29,69.12h34.33l-15.7-75.93Z"/>
      <path class="cls-1" d="M105.1,152.92c-4.66-34.33-4.66-69.15,0-103.48L111.75.4h-19.38l-6.3,46.46c-4.89,36.05-4.89,72.6,0,108.65l6.3,46.46h19.38l-6.65-49.04Z"/>
      <path class="cls-1" d="M189.19,201.96h19.38l6.3-46.46c4.89-36.05,4.89-72.6,0-108.65L208.58.4h-19.38l6.65,49.04c4.66,34.33,4.66,69.15,0,103.48l-6.65,49.04Z"/>
      <path class="cls-1" d="M260.44,143.33c-5.01-27.97-5.01-56.33,0-84.3L270.93.4h-24.39l-9.73,54.4c-5.51,30.78-5.51,61.99,0,92.76l9.73,54.4h24.39l-10.49-58.63Z"/>
    </g>
  </g>
</svg>