<?xml version="1.0" encoding="UTF-8"?>
<svg id="Layer_3" data-name="Layer 3" xmlns="http://www.w3.org/2000/svg" viewBox="0 0 222.36 222.18">
  <defs>
    <style>
      .cls-1 {
        fill: none;
        stroke: #9499b3;
        stroke-miterlimit: 10;
        stroke-width: .25px;
      }
    </style>
  </defs>
  <g id="Layer_1" data-name="Layer 1">
    <g>
      <g>
        <path class="cls-1" d="M222.03,64.65V9.94c0-1.93-.53-3.82-1.52-5.46l-2.43-4.03v73.69s2.43-4.03,2.43-4.03c1-1.65,1.52-3.54,1.52-5.46Z"/>
        <path class="cls-1" d="M194.16,15.19c0-2.96-.93-5.84-2.66-8.25l-4.68-6.49v73.69s4.68-6.49,4.68-6.49c1.73-2.4,2.66-5.29,2.66-8.25V15.19Z"/>
        <path class="cls-1" d="M161.36,5.96l-5.69-5.51v73.69s5.69-5.51,5.69-5.51c3.08-2.99,4.82-7.09,4.82-11.38V17.34c0-4.29-1.74-8.39-4.82-11.38Z"/>
        <path class="cls-1" d="M138.08,52.52v-30.45c0-5.07-1.99-9.94-5.54-13.57L124.64.45v73.69s7.9-8.06,7.9-8.06c3.55-3.62,5.54-8.49,5.54-13.57Z"/>
        <path class="cls-1" d="M110.32,50.31v-26.02c0-6.4-2.9-12.46-7.89-16.47L93.27.45v73.69s9.15-7.36,9.15-7.36c4.99-4.01,7.89-10.07,7.89-16.47Z"/>
        <path class="cls-1" d="M82.31,47.1v-19.6c0-6.16-2.68-12.01-7.35-16.02L62.15.45v73.69s12.81-11.02,12.81-11.02c4.67-4.02,7.35-9.87,7.35-16.02Z"/>
        <path class="cls-1" d="M53.73,28.94c0-7.04-3.23-13.68-8.77-18.02L31.61.45v73.69s13.35-10.47,13.35-10.47c5.54-4.34,8.77-10.99,8.77-18.02v-16.71Z"/>
        <path class="cls-1" d="M26.09,43.61v-12.64c0-8.24-4.11-15.93-10.96-20.51L.13.45v73.69s15-10.02,15-10.02c6.85-4.58,10.96-12.27,10.96-20.51Z"/>
      </g>
      <g>
        <path class="cls-1" d="M.23,83.73v54.71c0,1.93.53,3.82,1.52,5.46l2.43,4.03v-73.69s-2.43,4.03-2.43,4.03c-1,1.65-1.52,3.54-1.52,5.46Z"/>
        <path class="cls-1" d="M28.1,133.2c0,2.96.93,5.84,2.66,8.25l4.68,6.49v-73.69s-4.68,6.49-4.68,6.49c-1.73,2.4-2.66,5.29-2.66,8.25v44.21Z"/>
        <path class="cls-1" d="M60.9,142.42l5.69,5.51v-73.69s-5.69,5.51-5.69,5.51c-3.08,2.99-4.82,7.09-4.82,11.38v39.9c0,4.29,1.74,8.39,4.82,11.38Z"/>
        <path class="cls-1" d="M84.18,95.86v30.45c0,5.07,1.99,9.94,5.54,13.57l7.9,8.06v-73.69s-7.9,8.06-7.9,8.06c-3.55,3.62-5.54,8.49-5.54,13.57Z"/>
        <path class="cls-1" d="M111.94,98.08v26.02c0,6.4,2.9,12.46,7.89,16.47l9.15,7.36v-73.69s-9.15,7.36-9.15,7.36c-4.99,4.01-7.89,10.07-7.89,16.47Z"/>
        <path class="cls-1" d="M139.95,101.29v19.6c0,6.16,2.68,12.01,7.35,16.02l12.81,11.02v-73.69s-12.81,11.02-12.81,11.02c-4.67,4.02-7.35,9.87-7.35,16.02Z"/>
        <path class="cls-1" d="M168.53,119.44c0,7.04,3.23,13.68,8.77,18.02l13.35,10.47v-73.69s-13.35,10.47-13.35,10.47c-5.54,4.34-8.77,10.99-8.77,18.02v16.71Z"/>
        <path class="cls-1" d="M196.17,104.77v12.64c0,8.24,4.11,15.93,10.96,20.51l15,10.02v-73.69s-15,10.02-15,10.02c-6.85,4.58-10.96,12.27-10.96,20.51Z"/>
      </g>
      <g>
        <path class="cls-1" d="M222.24,212.24v-54.71c0-1.93-.53-3.82-1.52-5.46l-2.43-4.03v73.69s2.43-4.03,2.43-4.03c1-1.65,1.52-3.54,1.52-5.46Z"/>
        <path class="cls-1" d="M194.37,162.77c0-2.96-.93-5.84-2.66-8.25l-4.68-6.49v73.69s4.68-6.49,4.68-6.49c1.73-2.4,2.66-5.29,2.66-8.25v-44.21Z"/>
        <path class="cls-1" d="M161.57,153.55l-5.69-5.51v73.69s5.69-5.51,5.69-5.51c3.08-2.99,4.82-7.09,4.82-11.38v-39.9c0-4.29-1.74-8.39-4.82-11.38Z"/>
        <path class="cls-1" d="M138.29,200.11v-30.45c0-5.07-1.99-9.94-5.54-13.57l-7.9-8.06v73.69s7.9-8.06,7.9-8.06c3.55-3.62,5.54-8.49,5.54-13.57Z"/>
        <path class="cls-1" d="M110.53,197.89v-26.02c0-6.4-2.9-12.46-7.89-16.47l-9.15-7.36v73.69s9.15-7.36,9.15-7.36c4.99-4.01,7.89-10.07,7.89-16.47Z"/>
        <path class="cls-1" d="M82.52,194.68v-19.6c0-6.16-2.68-12.01-7.35-16.02l-12.81-11.02v73.69s12.81-11.02,12.81-11.02c4.67-4.02,7.35-9.87,7.35-16.02Z"/>
        <path class="cls-1" d="M53.94,176.53c0-7.04-3.23-13.68-8.77-18.02l-13.35-10.47v73.69s13.35-10.47,13.35-10.47c5.54-4.34,8.77-10.99,8.77-18.02v-16.71Z"/>
        <path class="cls-1" d="M26.3,191.2v-12.64c0-8.24-4.11-15.93-10.96-20.51L.33,148.04v73.69s15-10.02,15-10.02c6.85-4.58,10.96-12.27,10.96-20.51Z"/>
      </g>
    </g>
  </g>
</svg>