<svg xmlns="http://www.w3.org/2000/svg" width="48" height="48" viewBox="0 0 48 48">
  <rect width="48" height="48" rx="10" fill="#080b18"/>
  <g transform="translate(4, 12) scale(0.085)">
    <style>.f1{fill:#fff;}</style>
    <path class="f1" d="M280.23,9.66c1.27-.98,3.57-1.2,6.94-.55V.46c-1.53-.27-3.07-.42-4.62-.44-4.36,0-7.77,1.2-10.25,3.6-2.51,2.43-3.74,6.1-3.74,11.01v4.17l-5.12-.07v8.03l5.12.07.07,28.83h9.64V14.63c0-2.29.65-3.96,1.96-4.98Z"/>
    <path class="f1" d="M300.47,12.02c3.25,0,5.87-2.65,5.86-5.89,0-3.25-2.65-5.87-5.89-5.86-1.56,0-3.05.62-4.14,1.72-2.31,2.28-2.33,6-.04,8.31.01.01.03.03.04.04,1.1,1.11,2.61,1.71,4.17,1.68Z"/>
    <path class="f1" d="M289.3,26.81h6.16v28.83h9.75V18.81h-26.94s0,8,11.03,8Z"/>
    <path class="f1" d="M314.66.02h9.74v55.62h-9.74V.02Z"/>
    <path class="f1" d="M356.31,55.64c-.19-1.09-.36-2.36-.55-3.78-2.29,3.16-5.93,4.76-10.94,4.76-3.51.15-6.95-1-9.67-3.23-2.52-2.19-3.9-5.42-3.74-8.76,0-3.67,1.2-6.54,3.63-8.58s5.67-3.06,9.8-3.06h10.73v-1.23c0-4.21-2.44-6.32-7.31-6.33-3.71-.21-7.17,1.85-8.77,5.2l-7.08-4.04c3.27-5.99,8.75-9,16.47-9.01,4.72,0,8.61,1.2,11.63,3.63s4.52,6.44,4.52,11.96v22.46h-8.71ZM355.61,39.64h-8.46c-1.56-.09-3.1.36-4.37,1.27-1.03.89-1.59,2.21-1.53,3.57,0,3.23,2.08,4.83,6.18,4.83,2.1.03,4.15-.7,5.75-2.07,1.64-1.34,2.43-3.63,2.43-6.86v-.74Z"/>
    <path class="f1" d="M392.82,26.74h-7.05v28.9h-9.52v-28.9h-7.13v-8.03h7.13V7.26h9.56v11.45h7.05l-.04,8.03Z"/>
    <path class="f1" d="M432.76,40.59h-27.85c.13,2.29,1.26,4.4,3.1,5.78,1.84,1.32,4.06,2.01,6.32,1.96,4.18,0,7.13-1.74,8.91-5.27l8.03,3.2c-1.31,3.18-3.62,5.85-6.58,7.59-3.13,1.87-6.72,2.82-10.36,2.76-5.49,0-9.94-1.79-13.37-5.38-3.46-3.57-5.16-8.25-5.16-14.07s1.7-10.54,5.12-14.17,7.92-5.42,13.56-5.42,9.92,1.78,13.27,5.34c3.35,3.56,5.02,8.33,5.02,14.25v3.42ZM408.16,27.76c-1.72,1.62-2.8,3.8-3.06,6.14h17.77c-.01-2.31-.92-4.53-2.54-6.18-1.66-1.43-3.81-2.17-6-2.07-2.25-.1-4.45.65-6.17,2.11h0Z"/>
    <path class="f1" d="M445.16,37.61l-13.08-18.9h11.44c1.72,2.47,4.3,6.54,7.75,12.22l7.45-12.22h11.08l-13.05,18.76,12.73,18.17h-11.46c-2.72-3.92-5.23-7.89-7.45-11.75l-7.19,11.75h-10.87l12.65-18.03Z"/>
  </g>
</svg>
