<svg xmlns="http://www.w3.org/2000/svg" width="48" height="48" viewBox="0 0 48 48">
  <rect width="48" height="48" rx="8" fill="#080b18"/>
  <g transform="translate(2, 14) scale(0.0936)">
    <style>.c1{fill:#fff;}</style>
    <path class="c1" d="M51.15,24.09v31.55h-8.82l-.51-5.74c-1.76,2.26-4.14,3.96-6.86,4.9-3.02,1.13-6.22,1.7-9.44,1.67-7.64,0-13.78-2.62-18.47-7.89S0,36.65,0,28.54,2.48,13.32,7.43,7.97,18.87,0,27.02,0c5.31-.14,10.54,1.27,15.05,4.07,4.08,2.56,7.16,6.43,8.73,10.98l-9.14,3.74c-1.01-2.91-3-5.36-5.64-6.95-2.72-1.52-5.79-2.28-8.9-2.21-5.16,0-9.23,1.74-12.24,5.2s-4.52,8.14-4.52,13.92,1.5,10.32,4.48,13.49c3.05,3.2,7.34,4.93,11.75,4.76,2.15,0,4.28-.34,6.33-.98,2.16-.72,4.08-2,5.59-3.7,1.77-1.97,2.87-4.46,3.13-7.09v-2.25h-15.95v-8.9h25.47Z"/>
    <path class="c1" d="M72.51,18.74c2.82-.69,5.76-.69,8.58,0v8.88c-4.36-1.06-7.78-.62-10.25,1.3-2.51,1.96-3.75,4.99-3.75,9.2v17.51h-9.8V18.81h9.02l.51,4.25c1.14-2.23,3.23-3.82,5.68-4.32Z"/>
    <path class="c1" d="M88,23.11c3.57-3.6,8.22-5.42,14-5.42s10.43,1.78,13.96,5.38,5.3,8.25,5.3,14.03-1.77,10.44-5.3,14.04-8.18,5.42-13.96,5.42-10.51-1.82-14.04-5.42-5.31-8.25-5.31-14.04,1.78-10.39,5.35-13.99ZM95.09,44.84c1.74,1.98,4.28,3.06,6.92,2.94,2.62.1,5.16-.98,6.91-2.94,3.5-4.57,3.5-10.92,0-15.49-1.75-1.96-4.28-3.04-6.91-2.94-2.63-.13-5.18.96-6.92,2.94-3.5,4.57-3.5,10.92,0,15.49Z"/>
    <path class="c1" d="M151.74,55.64c-.34-1.21-.58-2.45-.7-3.7-2.17,3.12-5.7,4.68-10.61,4.68-1.79.02-3.58-.21-5.31-.69-1.73-.53-3.36-1.32-4.84-2.36-1.67-1.22-2.97-2.88-3.74-4.8-.97-2.4-1.44-4.97-1.38-7.56v-22.53h9.75v20.57c-.05,1.55.22,3.1.79,4.55.38,1.09,1.1,2.03,2.04,2.69.75.51,1.57.9,2.44,1.17.76.21,1.54.32,2.32.32,2.09,0,4.12-.73,5.75-2.04,1.7-1.34,2.58-3.59,2.58-6.76v-20.47h9.8v36.93h-8.89Z"/>
    <path class="c1" d="M202.08,51.28c-5.37,5.27-13.38,6.81-20.33,3.92-2.02-.79-3.78-2.13-5.08-3.86v21.6h-9.38V18.71h8.62l.47,4.25c1.26-1.66,2.91-2.98,4.8-3.85,2.35-1.07,4.91-1.59,7.48-1.53,5.42,0,9.8,1.67,13.17,4.98s5.08,8.03,5.23,14.04c.11,6.25-1.56,11.16-4.98,14.68ZM194.55,44.88c3.72-4.53,3.72-11.06,0-15.59-1.92-1.96-4.57-3.02-7.31-2.94-2.77-.09-5.46.98-7.42,2.94-3.83,4.49-3.83,11.1,0,15.59,1.95,1.97,4.64,3.04,7.42,2.94,2.74.1,5.4-.97,7.31-2.94h0Z"/>
    <path class="c1" d="M247.63,40.59h-27.85c.13,2.29,1.26,4.4,3.1,5.78,1.84,1.32,4.06,2.01,6.32,1.96,4.18,0,7.13-1.74,8.91-5.27l8.03,3.2c-1.31,3.18-3.62,5.85-6.58,7.59-3.13,1.87-6.72,2.82-10.36,2.76-5.49,0-9.94-1.79-13.37-5.38-3.46-3.57-5.16-8.25-5.16-14.07s1.7-10.54,5.12-14.17,7.92-5.42,13.56-5.42,9.92,1.78,13.27,5.34c3.35,3.56,5.02,8.33,5.02,14.25v3.42ZM223.02,27.76c-1.72,1.62-2.8,3.8-3.06,6.14h17.78c-.02-2.31-.93-4.53-2.55-6.18-1.66-1.43-3.81-2.17-6-2.07-2.25-.1-4.45.65-6.17,2.11h0Z"/>
    <path class="c1" d="M314.66.02h9.74v55.62h-9.74V.02Z"/>
    <path class="c1" d="M356.31,55.64c-.19-1.09-.36-2.36-.55-3.78-2.29,3.16-5.93,4.76-10.94,4.76-3.51.15-6.95-1-9.67-3.23-2.52-2.19-3.9-5.42-3.74-8.76,0-3.67,1.2-6.54,3.63-8.58s5.67-3.06,9.8-3.06h10.73v-1.23c0-4.21-2.44-6.32-7.31-6.33-3.71-.21-7.17,1.85-8.77,5.2l-7.08-4.04c3.27-5.99,8.75-9,16.47-9.01,4.72,0,8.61,1.2,11.63,3.63s4.52,6.44,4.52,11.96v22.46h-8.71ZM355.61,39.64h-8.46c-1.56-.09-3.1.36-4.37,1.27-1.03.89-1.59,2.21-1.53,3.57,0,3.23,2.08,4.83,6.18,4.83,2.1.03,4.15-.7,5.75-2.07,1.64-1.34,2.43-3.63,2.43-6.86v-.74Z"/>
    <path class="c1" d="M392.82,26.74h-7.05v28.9h-9.52v-28.9h-7.13v-8.03h7.13V7.26h9.56v11.45h7.05l-.04,8.03Z"/>
    <path class="c1" d="M432.76,40.59h-27.85c.13,2.29,1.26,4.4,3.1,5.78,1.84,1.32,4.06,2.01,6.32,1.96,4.18,0,7.13-1.74,8.91-5.27l8.03,3.2c-1.31,3.18-3.62,5.85-6.58,7.59-3.13,1.87-6.72,2.82-10.36,2.76-5.49,0-9.94-1.79-13.37-5.38-3.46-3.57-5.16-8.25-5.16-14.07s1.7-10.54,5.12-14.17,7.92-5.42,13.56-5.42,9.92,1.78,13.27,5.34c3.35,3.56,5.02,8.33,5.02,14.25v3.42ZM408.16,27.76c-1.72,1.62-2.8,3.8-3.06,6.14h17.77c-.01-2.31-.92-4.53-2.54-6.18-1.66-1.43-3.81-2.17-6-2.07-2.25-.1-4.45.65-6.17,2.11h0Z"/>
    <path class="c1" d="M445.16,37.61l-13.08-18.9h11.44c1.72,2.47,4.3,6.54,7.75,12.22l7.45-12.22h11.08l-13.05,18.76,12.73,18.17h-11.46c-2.72-3.92-5.23-7.89-7.45-11.75l-7.19,11.75h-10.87l12.65-18.03Z"/>
    <path class="c1" d="M300.47,12.02c3.25,0,5.87-2.65,5.86-5.89,0-3.25-2.65-5.87-5.89-5.86-1.56,0-3.05.62-4.14,1.72-2.31,2.28-2.33,6-.04,8.31.01.01.03.03.04.04,1.1,1.11,2.61,1.71,4.17,1.68Z"/>
    <path class="c1" d="M280.23,9.66c1.27-.98,3.57-1.2,6.94-.55V.46c-1.53-.27-3.07-.42-4.62-.44-4.36,0-7.77,1.2-10.25,3.6-2.51,2.43-3.74,6.1-3.74,11.01v4.17l-5.12-.07v8.03l5.12.07.07,28.83h9.64V14.63c0-2.29.65-3.96,1.96-4.98Z"/>
    <path class="c1" d="M289.3,26.81h6.16v28.83h9.75V18.81h-26.94s0,8,11.03,8Z"/>
  </g>
</svg>
