<?xml version="1.0" encoding="UTF-8"?>
<svg id="Layer_2" data-name="Layer 2" xmlns="http://www.w3.org/2000/svg" viewBox="0 0 300 121.78">
  <defs>
    <style>
      .cls-1 {
        fill: #74b859;
      }

      .cls-2 {
        fill: #fff;
      }
    </style>
  </defs>
  <g id="Layer_1" data-name="Layer 1">
    <g>
      <g>
        <path class="cls-2" d="M53.45,0h10.16v58.04h-10.16V0Z"/>
        <path class="cls-2" d="M96.92,58.04c-.19-1.13-.38-2.46-.57-3.95-2.39,3.3-6.18,4.97-11.42,4.97-3.66.16-7.26-1.04-10.09-3.37-2.63-2.29-4.07-5.65-3.9-9.14,0-3.83,1.25-6.83,3.79-8.95,2.55-2.13,5.92-3.19,10.22-3.19h11.19v-1.29c0-4.4-2.54-6.6-7.63-6.6-3.87-.22-7.49,1.93-9.15,5.43l-7.39-4.21c3.41-6.26,9.14-9.39,17.18-9.4,4.93,0,8.99,1.25,12.13,3.79,3.15,2.55,4.71,6.72,4.71,12.48v23.44h-9.09ZM96.19,41.35h-8.83c-1.63-.1-3.24.37-4.56,1.33-1.07.93-1.66,2.3-1.59,3.72,0,3.37,2.17,5.04,6.45,5.04,2.2.03,4.33-.73,6-2.16,1.71-1.4,2.54-3.79,2.54-7.16v-.78Z"/>
        <path class="cls-2" d="M135.02,27.89h-7.36v30.16h-9.94v-30.16h-7.44v-8.38h7.44V7.55h9.98v11.95h7.36l-.04,8.38Z"/>
        <path class="cls-2" d="M176.7,42.34h-29.06c.14,2.39,1.32,4.59,3.23,6.03,1.92,1.38,4.23,2.1,6.59,2.04,4.36,0,7.44-1.82,9.3-5.5l8.38,3.34c-1.36,3.32-3.78,6.1-6.87,7.92-3.27,1.95-7.01,2.95-10.82,2.88-5.72,0-10.38-1.87-13.95-5.61-3.61-3.72-5.39-8.61-5.39-14.68s1.78-11,5.35-14.79,8.27-5.65,14.15-5.65,10.36,1.86,13.85,5.57c3.5,3.71,5.23,8.69,5.23,14.87v3.57ZM151.02,28.95c-1.79,1.69-2.92,3.96-3.19,6.41h18.54c-.01-2.41-.96-4.73-2.65-6.45-1.74-1.49-3.98-2.26-6.27-2.16-2.35-.1-4.65.68-6.44,2.2h0Z"/>
        <path class="cls-2" d="M189.64,39.22l-13.65-19.72h11.94c1.79,2.58,4.49,6.83,8.09,12.75l7.78-12.75h11.56l-13.62,19.58,13.29,18.96h-11.96c-2.84-4.09-5.46-8.23-7.78-12.27l-7.5,12.27h-11.35l13.2-18.82Z"/>
        <path class="cls-2" d="M38.65,12.52c3.39,0,6.13-2.76,6.12-6.15,0-3.39-2.76-6.13-6.15-6.12-1.62,0-3.18.65-4.32,1.8-2.41,2.38-2.43,6.27-.05,8.67.02.02.03.03.05.05,1.15,1.16,2.72,1.79,4.35,1.75Z"/>
        <path class="cls-2" d="M17.52,10.06c1.33-1.02,3.72-1.26,7.25-.57V.46c-1.59-.28-3.21-.43-4.83-.46-4.55,0-8.11,1.25-10.69,3.76-2.62,2.54-3.9,6.37-3.9,11.49v4.35l-5.35-.07v8.38l5.35.07.07,30.08h10.06V15.25c0-2.39.67-4.13,2.04-5.19Z"/>
        <path class="cls-2" d="M26.99,27.96h6.43v30.08h10.17V19.61H15.48s0,8.35,11.51,8.35Z"/>
      </g>
      <g>
        <polygon class="cls-1" points="106.01 85.34 58.23 94.72 58.23 82.14 0 94.94 0 106.14 0 106.14 0 110.38 0 110.38 0 110.38 58.23 110.38 58.23 110.38 106.01 110.38 106.01 85.34"/>
        <g>
          <path class="cls-1" d="M129.11,71.64h25.29v5.64h-18.93v10.74h15.61v5.48h-15.61v11.23h19.59v5.64h-25.95v-38.74Z"/>
          <path class="cls-1" d="M182.82,84.81c2.12,2.07,3.18,5.39,3.18,9.96v15.61h-6.03v-15.27c0-2.69-.57-4.74-1.71-6.14-1.15-1.4-2.82-2.1-5.04-2.1-2.36,0-4.21.82-5.56,2.46s-2.02,3.9-2.02,6.78v14.28h-5.98v-28.33h5.2l.66,3.71c2.14-2.69,5.16-4.04,9.08-4.04,3.36,0,6.1,1.03,8.22,3.1Z"/>
          <path class="cls-1" d="M192.12,88.6c1.16-2.19,2.79-3.89,4.87-5.09,2.08-1.2,4.47-1.8,7.17-1.8s5.14.55,7.22,1.66,3.73,2.68,4.93,4.7c1.2,2.03,1.82,4.41,1.85,7.14,0,.74-.05,1.49-.16,2.27h-21.36v.33c.15,2.47.92,4.43,2.32,5.87s3.27,2.16,5.59,2.16c1.84,0,3.39-.43,4.65-1.3,1.25-.87,2.08-2.09,2.49-3.68h5.98c-.52,2.88-1.91,5.24-4.18,7.08-2.27,1.84-5.1,2.77-8.49,2.77-2.95,0-5.52-.6-7.72-1.8-2.2-1.2-3.89-2.89-5.09-5.06-1.2-2.18-1.8-4.7-1.8-7.58s.58-5.47,1.74-7.67ZM212.07,93.12c-.26-2.07-1.08-3.68-2.46-4.84s-3.13-1.74-5.23-1.74c-1.96,0-3.64.6-5.06,1.8-1.42,1.2-2.24,2.79-2.46,4.79h15.22Z"/>
          <path class="cls-1" d="M238.63,82.05v5.59h-2.66c-2.47,0-4.26.8-5.37,2.41-1.11,1.6-1.66,3.64-1.66,6.11v14.22h-5.98v-28.33h5.31l.66,4.26c.81-1.33,1.86-2.37,3.15-3.13,1.29-.75,3.02-1.13,5.2-1.13h1.33Z"/>
          <path class="cls-1" d="M268.62,82.05v27.17c0,3.98-1.18,7.07-3.54,9.27-2.36,2.19-6.01,3.29-10.96,3.29-3.84,0-6.95-.86-9.35-2.57-2.4-1.72-3.73-4.14-3.98-7.28h6.09c.37,1.59,1.22,2.81,2.55,3.68,1.33.87,3.04,1.3,5.15,1.3,5.42,0,8.13-2.64,8.13-7.91v-3.15c-2.07,3.1-5.15,4.65-9.24,4.65-2.58,0-4.89-.58-6.92-1.74-2.03-1.16-3.62-2.82-4.76-4.98-1.14-2.16-1.72-4.71-1.72-7.67s.58-5.35,1.74-7.53c1.16-2.18,2.76-3.86,4.79-5.06,2.03-1.2,4.32-1.8,6.86-1.8,2.14,0,3.98.42,5.53,1.27,1.55.85,2.8,2.01,3.76,3.49l.66-4.43h5.2ZM260.43,102.88c1.51-1.71,2.27-3.94,2.27-6.67s-.76-5.08-2.27-6.83c-1.51-1.75-3.51-2.63-5.98-2.63s-4.46.87-5.98,2.6c-1.51,1.74-2.27,3.99-2.27,6.75s.76,5.02,2.27,6.75c1.51,1.73,3.5,2.6,5.98,2.6s4.46-.86,5.98-2.57Z"/>
          <path class="cls-1" d="M278.03,82.05l7.91,21.86,7.69-21.86h6.36l-12.84,32.76c-.66,1.7-1.27,3-1.83,3.9s-1.24,1.59-2.05,2.05c-.81.46-1.9.69-3.27.69h-6.42v-5.26h4.21c1.14,0,1.94-.18,2.38-.53s.9-1.13,1.38-2.35l1.16-2.71-11.07-28.56h6.36Z"/>
        </g>
      </g>
    </g>
  </g>
</svg>